<?xml version="1.0" standalone="no"?>
<!DOCTYPE svg PUBLIC "-//W3C//DTD SVG 20010904//EN"
 "http://www.w3.org/TR/2001/REC-SVG-20010904/DTD/svg10.dtd">
<svg version="1.0" xmlns="http://www.w3.org/2000/svg"
 width="944.000000pt" height="944.000000pt" viewBox="0 0 944.000000 944.000000"
 preserveAspectRatio="xMidYMid meet">
<metadata>
Created by potrace 1.14, written by Peter Selinger 2001-2017
</metadata>
<g transform="translate(0.000000,944.000000) scale(0.100000,-0.100000)"
fill="#000000" stroke="none">
<path d="M4960 9431 c-30 -5 -109 -14 -175 -21 -248 -25 -538 -75 -720 -126
-49 -14 -117 -32 -150 -41 -98 -26 -236 -73 -295 -100 -30 -14 -91 -37 -135
-51 -44 -14 -122 -48 -173 -74 -51 -26 -98 -48 -105 -48 -13 0 -262 -125 -297
-150 -14 -9 -35 -21 -47 -24 -13 -4 -23 -12 -23 -17 0 -5 -8 -9 -17 -9 -10 0
-26 -7 -36 -14 -17 -13 -13 -16 37 -41 31 -15 56 -31 56 -36 0 -5 6 -9 14 -9
8 0 21 -6 28 -14 8 -7 32 -23 54 -35 21 -11 64 -38 94 -60 30 -22 85 -58 123
-81 37 -22 67 -45 67 -49 0 -5 10 -11 23 -15 12 -3 56 -31 99 -63 42 -32 102
-76 134 -98 32 -22 75 -57 96 -77 22 -21 57 -47 78 -58 22 -11 40 -24 40 -29
0 -4 35 -35 77 -67 42 -33 92 -72 109 -89 18 -16 63 -58 101 -92 207 -188 243
-223 363 -354 58 -62 132 -142 165 -176 33 -35 65 -69 70 -76 6 -7 28 -33 50
-57 l39 -45 1176 -5 1175 -5 88 -28 c104 -33 148 -52 204 -89 23 -16 49 -28
57 -28 25 0 133 -94 224 -197 81 -92 176 -273 197 -376 35 -169 36 -201 33
-1533 l-3 -1329 -29 -100 c-15 -55 -45 -136 -66 -180 -41 -86 -117 -205 -131
-205 -5 0 -20 -17 -34 -38 -14 -21 -43 -52 -65 -68 -23 -16 -60 -43 -83 -61
-87 -65 -205 -115 -372 -159 -60 -15 -124 -18 -437 -22 l-368 -4 1 -436 c0
-472 3 -506 53 -602 86 -166 264 -264 476 -264 127 0 330 45 535 118 39 13
113 32 165 41 105 17 160 33 160 44 0 4 19 26 43 49 181 177 334 332 356 361
14 20 69 79 121 133 92 95 173 193 216 265 12 19 41 56 66 81 24 26 57 67 73
92 16 25 42 61 57 82 16 20 34 47 41 60 7 12 29 49 50 80 20 31 37 60 37 63 0
3 16 28 36 56 19 28 58 94 86 148 28 53 56 103 63 111 7 8 16 26 20 40 4 14
43 98 86 187 44 88 79 166 79 173 0 6 20 57 44 113 24 56 50 122 56 147 7 25
29 97 51 160 21 63 43 135 48 160 5 25 25 117 44 205 53 242 70 352 97 610 15
141 12 592 -5 740 -29 258 -51 393 -95 580 -23 98 -21 94 -80 275 -22 69 -47
148 -56 175 -9 28 -40 102 -69 165 -29 63 -61 135 -71 160 -10 25 -37 74 -59
110 -23 36 -49 85 -59 109 -9 24 -46 90 -81 146 -36 57 -65 108 -65 113 0 5
-20 32 -44 58 -23 27 -50 63 -59 79 -41 77 -338 412 -465 525 -132 117 -176
157 -247 223 -38 37 -82 72 -97 78 -15 6 -28 15 -28 20 0 4 -26 25 -57 46 -53
34 -146 104 -183 137 -8 7 -40 26 -70 42 -30 16 -58 33 -62 38 -8 11 -74 50
-183 107 -44 23 -82 45 -85 50 -3 5 -26 15 -50 24 -47 16 -85 32 -110 46 -22
12 -162 79 -185 89 -41 17 -101 42 -120 50 -115 51 -270 99 -395 124 -47 10
-110 24 -140 32 -101 27 -284 62 -355 69 -38 3 -115 13 -170 20 -117 17 -644
28 -725 16z"/>
<path d="M2300 8439 c-47 -32 -118 -87 -157 -121 -40 -35 -79 -65 -87 -68 -8
-3 -47 -34 -87 -70 -40 -36 -80 -70 -90 -75 -58 -33 -534 -506 -584 -580 -18
-27 -48 -63 -65 -80 -18 -16 -46 -50 -63 -75 -16 -25 -44 -58 -60 -75 -17 -16
-42 -48 -56 -70 -14 -23 -43 -61 -63 -86 -21 -26 -38 -51 -38 -56 0 -6 -23
-41 -51 -79 -28 -38 -55 -78 -60 -89 -5 -11 -27 -45 -49 -75 -23 -30 -52 -77
-66 -105 -13 -27 -41 -77 -61 -110 -19 -33 -44 -82 -54 -108 -11 -26 -30 -65
-44 -87 -14 -22 -41 -79 -61 -127 -20 -48 -56 -126 -79 -173 -23 -47 -55 -121
-70 -165 -15 -44 -37 -107 -50 -140 -13 -33 -32 -91 -43 -130 -11 -38 -34
-115 -51 -170 -44 -146 -94 -372 -127 -578 -8 -53 -19 -110 -23 -125 -4 -15
-9 -56 -10 -92 -1 -36 -6 -92 -11 -125 -5 -33 -13 -94 -17 -135 -10 -93 -11
-609 -1 -710 20 -205 33 -306 59 -435 5 -27 21 -108 34 -180 32 -163 69 -294
145 -503 16 -46 30 -91 30 -100 0 -8 26 -72 59 -141 32 -69 61 -139 65 -156 4
-16 14 -37 21 -45 13 -15 76 -125 140 -245 43 -81 96 -172 129 -220 72 -107
97 -140 124 -169 16 -17 43 -52 61 -78 88 -132 448 -500 563 -576 13 -8 43
-34 68 -57 25 -24 99 -77 165 -119 66 -41 147 -94 180 -118 33 -24 74 -48 92
-55 17 -6 69 -34 115 -62 47 -28 102 -57 124 -65 21 -7 85 -37 141 -65 56 -28
108 -51 115 -51 7 0 87 -27 178 -60 91 -32 186 -64 212 -69 25 -6 57 -15 70
-20 152 -58 453 -114 773 -146 259 -25 448 -30 610 -15 263 23 427 41 520 56
237 38 782 189 924 255 35 17 78 33 95 36 17 3 62 21 100 40 38 19 108 51 155
72 48 21 115 56 150 79 36 23 80 47 100 53 20 7 52 24 71 39 43 32 152 100
163 100 4 0 43 26 86 57 43 32 105 77 137 101 33 23 75 55 94 71 l34 29 -134
-1 c-132 0 -137 1 -225 35 -49 20 -102 39 -117 42 -35 8 -140 75 -248 158 -47
36 -131 127 -154 166 -6 11 -25 39 -41 63 -35 50 -67 123 -84 189 -6 25 -23
88 -36 140 -24 94 -25 101 -25 513 l0 417 -1226 -2 -1225 -3 -40 -45 c-22 -25
-84 -91 -136 -147 -53 -56 -101 -110 -106 -120 -6 -10 -31 -38 -56 -63 -25
-25 -59 -65 -75 -89 -16 -24 -44 -52 -63 -63 -18 -11 -33 -24 -33 -29 0 -6
-28 -40 -62 -78 -94 -101 -137 -150 -181 -206 -22 -27 -45 -55 -51 -60 -6 -6
-45 -48 -86 -95 -41 -47 -81 -92 -90 -101 -8 -9 -31 -37 -50 -62 -19 -26 -38
-46 -42 -47 -4 0 -7 1074 -7 2388 0 2341 1 2388 20 2462 11 41 24 92 30 113
10 40 61 139 89 172 9 11 27 40 39 65 51 99 188 222 334 299 54 28 105 55 115
60 9 5 49 20 87 32 69 23 79 23 598 27 290 2 527 7 527 11 0 4 -23 29 -51 56
-28 28 -106 104 -173 170 -67 66 -162 154 -211 195 -48 41 -100 87 -114 101
-15 15 -45 40 -68 55 -22 16 -72 56 -110 89 -91 78 -209 169 -270 207 -26 17
-65 46 -87 65 -21 19 -54 42 -74 50 -20 8 -61 34 -92 58 -30 23 -78 54 -106
68 -45 23 -167 100 -279 177 -52 36 -121 70 -137 69 -7 0 -51 -27 -98 -60z"/>
<path d="M3180 6730 c-78 -21 -187 -79 -260 -138 -50 -41 -118 -130 -160 -213
-39 -74 -40 -170 -39 -2045 l1 -1813 53 57 c28 31 70 78 92 103 22 26 58 65
80 88 23 22 56 60 74 83 18 24 49 61 69 83 20 22 58 70 84 108 l47 67 1857 1
c1021 1 1873 3 1892 5 38 3 150 43 208 74 42 22 156 117 178 149 35 49 91 171
103 221 10 43 12 341 9 1390 -4 1479 1 1386 -68 1476 -16 21 -46 63 -66 92
-46 67 -124 127 -244 188 -14 7 -59 20 -100 28 -66 14 -285 16 -1910 15 -1730
-1 -1839 -2 -1900 -19z"/>
</g>
</svg>
